<svg width="182" height="160" viewBox="0 0 182 160" fill="none" xmlns="http://www.w3.org/2000/svg">
<path d="M181.479 84.1915C181.479 125.194 140.854 158.433 90.7397 158.433C40.6255 158.433 0 125.194 0 84.1915C0 43.189 40.6255 37.1719 90.7397 37.1719C140.854 37.1719 181.479 43.189 181.479 84.1915Z" fill="#BFD0FF"/>
<path d="M145.643 5C169.4 22.818 179.556 64.3016 181.664 82.8161C160.308 68.5178 111.857 49.7649 117.137 38.5462C122.416 27.3275 140.694 7.29141 145.643 5Z" fill="#BFD0FF"/>
<path d="M36.0209 5C12.2636 22.818 2.10809 64.3016 0 82.8161C21.3559 68.5178 69.8068 49.7649 64.5274 38.5462C59.248 27.3275 40.9703 7.29141 36.0209 5Z" fill="#BFD0FF"/>
<g opacity="0.4">
<mask id="mask0_932_11735" style="mask-type:alpha" maskUnits="userSpaceOnUse" x="0" y="37" width="182" height="122">
<path d="M181.479 84.1915C181.479 125.194 140.854 158.433 90.7397 158.433C40.6255 158.433 0 125.194 0 84.1915C0 43.189 40.6255 37.1719 90.7397 37.1719C140.854 37.1719 181.479 43.189 181.479 84.1915Z" fill="#BFD0FF"/>
</mask>
<g mask="url(#mask0_932_11735)">
<path d="M50.346 98.8522C51.5145 93.2786 47.261 88.041 41.5662 88.041V88.041C37.3213 88.041 33.6575 91.0164 32.7865 95.171L30.9722 103.825C30.1428 107.781 30.5404 111.896 32.1117 115.62L34.2813 120.762L37.1062 127.457C38.2508 130.17 38.5404 133.168 37.9362 136.049L36.5478 142.672C35.3793 148.246 39.6327 153.484 45.3275 153.484V153.484C49.5724 153.484 53.2363 150.508 54.1073 146.354L55.9216 137.699C56.751 133.743 56.3534 129.628 54.7821 125.904L52.6125 120.762L49.7876 114.067C48.643 111.354 48.3534 108.357 48.9575 105.475L50.346 98.8522Z" fill="#5B85F6"/>
<path d="M145.487 98.8522C146.655 93.2786 142.402 88.041 136.707 88.041V88.041C132.462 88.041 128.798 91.0164 127.927 95.171L126.113 103.825C125.283 107.781 125.681 111.896 127.252 115.62L129.422 120.762L132.247 127.457C133.391 130.17 133.681 133.168 133.077 136.049L131.688 142.672C130.52 148.246 134.773 153.484 140.468 153.484V153.484C144.713 153.484 148.377 150.508 149.248 146.354L151.062 137.699C151.892 133.743 151.494 129.628 149.923 125.904L147.753 120.762L144.928 114.067C143.784 111.354 143.494 108.357 144.098 105.475L145.487 98.8522Z" fill="#5B85F6"/>
<path d="M73.1406 62.1934L73.1406 34.6965" stroke="#5B85F6" stroke-width="8.799" stroke-linecap="round"/>
<path d="M90.7422 70.7188L90.7422 34.6979" stroke="#5B85F6" stroke-width="8.799" stroke-linecap="round"/>
<path d="M108.336 62.1934L108.336 34.6965" stroke="#5B85F6" stroke-width="8.799" stroke-linecap="round"/>
</g>
</g>
<path d="M90.7422 118.287L90.7422 103.989" stroke="#5B85F6" stroke-width="8.799" stroke-linecap="round"/>
<path d="M79.1875 128.398L89.298 118.288" stroke="#5B85F6" stroke-width="8.799" stroke-linecap="round"/>
<path d="M103.047 128.398L92.9364 118.288" stroke="#5B85F6" stroke-width="8.799" stroke-linecap="round"/>
<ellipse cx="91.0112" cy="104.264" rx="11.8237" ry="6.32428" fill="#5B85F6"/>
<path d="M24.1953 90.5156H60.2162" stroke="#5B85F6" stroke-width="8.799" stroke-linecap="round"/>
<path d="M120.711 90.5156H156.732" stroke="#5B85F6" stroke-width="8.799" stroke-linecap="round"/>
</svg>
