<svg width="42" height="42" viewBox="0 0 42 42" fill="none" xmlns="http://www.w3.org/2000/svg">
    <path opacity="0.25" fill-rule="evenodd" clip-rule="evenodd"
          d="M21 41C32.0457 41 41 32.0457 41 21C41 9.95431 32.0457 1 21 1C9.95431 1 1 9.95431 1 21C1 32.0457 9.95431 41 21 41Z"
          stroke="white" stroke-width="1.5"/>
    <path d="M22.8459 16.3333H24.6919C24.8617 16.3333 24.9996 16.2027 24.9996 16.0417V14.2917C24.9996 14.1307 24.8617 14 24.6919 14H22.8459C20.9801 14 19.4614 15.4391 19.4614 17.2083V19.25H17.3077C17.1378 19.25 17 19.3807 17 19.5417V21.2917C17 21.4527 17.1378 21.5833 17.3077 21.5833H19.4614V27.7083C19.4614 27.8693 19.5993 28 19.7691 28H21.6151C21.785 28 21.9228 27.8693 21.9228 27.7083V21.5833H24.0766C24.2089 21.5833 24.3264 21.5028 24.3689 21.3838L24.9842 19.6338C25.0156 19.5452 24.9996 19.4472 24.9417 19.3707C24.8833 19.2949 24.791 19.25 24.6919 19.25H21.9228V17.2083C21.9228 16.7259 22.337 16.3333 22.8459 16.3333Z"
          fill="white"/>
</svg>
