<svg width="992" height="501" viewBox="0 0 992 501" fill="none" xmlns="http://www.w3.org/2000/svg">
<path d="M959.901 89C959.25 89.002 958.601 88.9293 957.967 88.7833C953.47 87.7 950.26 82.8793 951.148 78.4323C952.036 73.9853 956.691 70.6595 961.34 71.0279L963.522 71.1958C963.741 71.2128 963.948 71.3007 964.109 71.4452C964.271 71.5897 964.376 71.7823 964.41 71.992C965.373 72.5624 966.208 73.3118 966.867 74.1966C968.637 76.5311 969.413 79.846 968.784 82.4405C968.499 83.5212 967.996 84.5372 967.303 85.4303C966.611 86.3235 965.742 87.0764 964.747 87.6458C963.292 88.5189 961.615 88.9875 959.901 89ZM960.649 72.8912C957.13 72.8912 953.734 75.4857 953.071 78.7898C952.368 82.2997 954.875 86.113 958.428 86.9471C959.33 87.1392 960.263 87.1581 961.172 87.0029C962.082 86.8477 962.951 86.5214 963.73 86.0425C965.293 85.1546 966.428 83.7053 966.883 82.0126C967.103 80.8493 967.075 79.6552 966.802 78.5026C966.528 77.3499 966.015 76.2628 965.293 75.3069C964.83 74.645 964.223 74.088 963.514 73.6746C962.805 73.2612 962.012 73.0013 961.189 72.9128C961.009 72.8966 960.857 72.8912 960.649 72.8912Z" fill="white"/>
<path d="M985.934 68C985.5 68.0013 985.067 67.9529 984.645 67.8555C981.647 67.1333 979.507 63.9195 980.099 60.9549C980.691 57.9902 983.794 55.773 986.894 56.0186L988.348 56.1305C988.494 56.1419 988.632 56.2005 988.74 56.2968C988.847 56.3931 988.918 56.5216 988.94 56.6613C989.582 57.0416 990.138 57.5412 990.578 58.131C991.758 59.6874 992.275 61.8973 991.856 63.627C991.666 64.3475 991.331 65.0248 990.869 65.6202C990.407 66.2157 989.828 66.7176 989.165 67.0972C988.195 67.6793 987.077 67.9917 985.934 68ZM986.433 57.2608C984.086 57.2608 981.823 58.9905 981.381 61.1932C980.912 63.5331 982.584 66.0753 984.952 66.6314C985.554 66.7594 986.175 66.7721 986.782 66.6686C987.388 66.5652 987.967 66.3476 988.486 66.0284C989.529 65.4364 990.285 64.4702 990.589 63.3417C990.735 62.5662 990.717 61.7701 990.534 61.0017C990.352 60.2333 990.01 59.5085 989.528 58.8713C989.22 58.43 988.815 58.0587 988.343 57.7831C987.87 57.5075 987.341 57.3342 986.792 57.2752C986.672 57.2644 986.571 57.2608 986.433 57.2608Z" fill="white"/>
<path d="M53.5177 50H53.3231C52.9722 49.9516 52.6523 49.7727 52.427 49.4989C52.2017 49.2251 52.0875 48.8763 52.1071 48.522C52.5692 40.8803 47.697 32.8651 39.6957 28.0819C39.4839 27.9572 39.3082 27.7792 39.1862 27.5655C39.0642 27.3518 39 27.1099 39 26.8638C39 26.6176 39.0642 26.3758 39.1862 26.1621C39.3082 25.9484 39.4839 25.7704 39.6957 25.6457C48.0051 20.9437 53.542 11.215 53.4771 1.42938C53.4727 1.05875 53.6139 0.701236 53.8702 0.433881C54.1264 0.166526 54.4773 0.0107577 54.8472 0.00013298C55.2143 -0.00486618 55.5693 0.131251 55.8392 0.380499C56.1091 0.629747 56.2734 0.973159 56.2983 1.34006C56.5658 6.41558 56.8414 11.6535 58.6006 16.3961C60.4651 21.4553 63.9754 25.1747 67.9801 26.3522C68.2844 26.44 68.5503 26.6279 68.7351 26.8856C68.9198 27.1432 69.0127 27.4557 68.9986 27.7726C68.9846 28.0895 68.8645 28.3925 68.6576 28.6327C68.4508 28.873 68.1693 29.0365 67.8585 29.097C64.3726 29.7873 61.0975 32.4996 58.8762 36.5276C56.8009 40.3037 55.8119 44.689 54.8229 48.9199C54.7513 49.2172 54.5853 49.4832 54.35 49.6779C54.1147 49.8727 53.8226 49.9857 53.5177 50ZM43.0519 26.8719C48.1458 30.3133 51.9752 35.3302 53.9554 41.1564C54.5786 39.071 55.4125 37.0548 56.4442 35.1389C58.1233 31.9296 60.7051 29.284 63.87 27.5297C60.1924 25.104 57.4214 21.5256 55.9902 17.3543C55.3345 15.5526 54.8381 13.6966 54.5067 11.8078C52.3467 17.9011 48.3423 23.1673 43.0519 26.8719Z" fill="white"/>
<path d="M710.162 490H710.026C709.781 489.965 709.557 489.836 709.399 489.639C709.241 489.442 709.161 489.191 709.175 488.936C709.498 483.434 706.088 477.663 700.487 474.219C700.339 474.129 700.216 474.001 700.13 473.847C700.045 473.693 700 473.519 700 473.342C700 473.165 700.045 472.991 700.13 472.837C700.216 472.683 700.339 472.555 700.487 472.465C706.304 469.079 710.179 462.075 710.134 455.029C710.131 454.762 710.23 454.505 710.409 454.312C710.588 454.12 710.834 454.008 711.093 454C711.35 453.996 711.598 454.095 711.787 454.274C711.976 454.453 712.091 454.701 712.109 454.965C712.296 458.619 712.489 462.391 713.72 465.805C715.026 469.448 717.483 472.126 720.286 472.974C720.499 473.037 720.685 473.172 720.815 473.358C720.944 473.543 721.009 473.768 720.999 473.996C720.989 474.224 720.905 474.443 720.76 474.616C720.616 474.789 720.419 474.906 720.201 474.95C717.761 475.447 715.468 477.4 713.913 480.3C712.461 483.019 711.768 486.176 711.076 489.222C711.026 489.436 710.91 489.628 710.745 489.768C710.58 489.908 710.376 489.99 710.162 490ZM702.836 473.348C706.402 475.826 709.083 479.438 710.469 483.633C710.905 482.131 711.489 480.679 712.211 479.3C713.386 476.989 715.194 475.084 717.409 473.821C714.835 472.075 712.895 469.498 711.893 466.495C711.434 465.198 711.087 463.862 710.855 462.502C709.343 466.889 706.54 470.68 702.836 473.348Z" fill="white"/>
<path d="M963.923 409.188L951.885 408.87C951.766 408.867 951.648 408.841 951.539 408.792C951.43 408.743 951.331 408.672 951.249 408.585C951.167 408.497 951.102 408.393 951.06 408.281C951.017 408.168 950.997 408.047 951 407.926C950.999 407.804 951.023 407.683 951.07 407.57C951.117 407.458 951.187 407.356 951.274 407.272C951.361 407.187 951.465 407.122 951.578 407.079C951.691 407.037 951.811 407.018 951.932 407.025L963.97 407.343C964.211 407.343 964.443 407.44 964.614 407.613C964.784 407.786 964.88 408.021 964.88 408.266C964.88 408.51 964.784 408.745 964.614 408.918C964.443 409.091 964.211 409.188 963.97 409.188H963.923Z" fill="white"/>
<path d="M981.032 409.3L972.658 409.05C972.538 409.047 972.421 409.02 972.312 408.97C972.203 408.92 972.105 408.849 972.023 408.761C971.941 408.673 971.878 408.569 971.836 408.456C971.794 408.343 971.774 408.222 971.778 408.101C971.79 407.858 971.895 407.629 972.069 407.462C972.244 407.296 972.475 407.203 972.715 407.205L981.089 407.454C981.331 407.454 981.562 407.551 981.733 407.724C981.904 407.897 982 408.132 982 408.377C982 408.622 981.904 408.856 981.733 409.029C981.562 409.202 981.331 409.3 981.089 409.3H981.032Z" fill="white"/>
<path d="M968.387 403.843C968.147 403.842 967.917 403.745 967.746 403.573C967.576 403.402 967.479 403.169 967.476 402.926L967.392 391.928C967.392 391.684 967.487 391.449 967.657 391.276C967.826 391.102 968.057 391.003 968.298 391C968.417 390.999 968.536 391.023 968.646 391.068C968.756 391.114 968.857 391.182 968.942 391.267C969.026 391.352 969.093 391.453 969.139 391.565C969.185 391.677 969.209 391.796 969.209 391.917L969.292 402.936C969.294 403.058 969.271 403.178 969.227 403.29C969.182 403.403 969.117 403.505 969.033 403.592C968.949 403.679 968.85 403.748 968.74 403.795C968.63 403.843 968.512 403.868 968.392 403.87L968.387 403.843Z" fill="white"/>
<path d="M968.455 427C968.216 427 967.987 426.905 967.817 426.735C967.646 426.566 967.549 426.335 967.544 426.093L967.366 413.367C967.363 413.122 967.456 412.886 967.624 412.71C967.792 412.535 968.023 412.434 968.264 412.431C968.506 412.427 968.739 412.521 968.912 412.692C969.085 412.862 969.184 413.096 969.188 413.34L969.366 426.067C969.367 426.188 969.345 426.308 969.3 426.421C969.256 426.533 969.19 426.636 969.106 426.722C969.023 426.809 968.923 426.878 968.813 426.926C968.703 426.973 968.585 426.999 968.466 427H968.455Z" fill="white"/>
<path d="M702.421 112.157L692.714 111.892C692.617 111.889 692.522 111.867 692.434 111.826C692.346 111.786 692.267 111.727 692.201 111.654C692.134 111.581 692.083 111.495 692.048 111.4C692.014 111.306 691.998 111.206 692 111.105C692 111.003 692.019 110.902 692.057 110.808C692.095 110.715 692.151 110.63 692.221 110.56C692.291 110.489 692.375 110.435 692.466 110.399C692.557 110.364 692.654 110.348 692.752 110.354L702.459 110.619C702.654 110.619 702.841 110.7 702.979 110.844C703.117 110.988 703.194 111.184 703.194 111.388C703.194 111.592 703.117 111.787 702.979 111.932C702.841 112.076 702.654 112.157 702.459 112.157H702.421Z" fill="white"/>
<path d="M716.219 112.25L709.466 112.042C709.37 112.039 709.275 112.016 709.187 111.975C709.099 111.934 709.02 111.874 708.954 111.801C708.888 111.727 708.837 111.641 708.803 111.547C708.769 111.452 708.753 111.352 708.757 111.251C708.767 111.049 708.851 110.858 708.991 110.719C709.132 110.58 709.319 110.503 709.512 110.504L716.266 110.712C716.46 110.712 716.647 110.793 716.785 110.937C716.923 111.081 717 111.277 717 111.481C717 111.685 716.923 111.88 716.785 112.024C716.647 112.169 716.46 112.25 716.266 112.25H716.219Z" fill="white"/>
<path d="M706.022 107.703C705.828 107.701 705.642 107.621 705.505 107.478C705.368 107.335 705.289 107.141 705.287 106.938L705.22 97.7733C705.22 97.5698 705.296 97.3744 705.433 97.2296C705.57 97.0848 705.755 97.0023 705.95 97C706.046 96.9994 706.142 97.0188 706.231 97.0569C706.32 97.0951 706.401 97.1513 706.469 97.2224C706.537 97.2934 706.591 97.3779 706.628 97.4709C706.665 97.5639 706.684 97.6637 706.684 97.7645L706.752 106.947C706.753 107.048 706.735 107.148 706.699 107.242C706.663 107.336 706.61 107.421 706.543 107.493C706.475 107.566 706.395 107.623 706.306 107.663C706.218 107.703 706.122 107.724 706.026 107.725L706.022 107.703Z" fill="white"/>
<path d="M706.077 127C705.884 127 705.699 126.921 705.562 126.779C705.424 126.638 705.346 126.446 705.342 126.244L705.199 115.639C705.196 115.435 705.271 115.238 705.406 115.092C705.542 114.946 705.728 114.862 705.923 114.859C706.117 114.856 706.305 114.934 706.445 115.076C706.585 115.219 706.665 115.413 706.668 115.617L706.811 126.222C706.812 126.323 706.794 126.423 706.758 126.517C706.723 126.611 706.669 126.696 706.602 126.769C706.535 126.841 706.454 126.898 706.366 126.938C706.277 126.978 706.182 126.999 706.085 127H706.077Z" fill="white"/>
<path d="M56.4215 486.157L46.7136 485.892C46.6174 485.889 46.5225 485.867 46.4344 485.826C46.3464 485.786 46.267 485.727 46.2007 485.654C46.1344 485.581 46.0825 485.495 46.0481 485.4C46.0137 485.306 45.9975 485.206 46.0003 485.105C45.9996 485.003 46.0188 484.902 46.0567 484.808C46.0947 484.715 46.1506 484.63 46.2209 484.56C46.2913 484.489 46.3747 484.435 46.466 484.399C46.5572 484.364 46.6544 484.348 46.7516 484.354L56.4595 484.619C56.6542 484.619 56.8411 484.7 56.9788 484.844C57.1165 484.988 57.1939 485.184 57.1939 485.388C57.1939 485.592 57.1165 485.787 56.9788 485.932C56.8411 486.076 56.6542 486.157 56.4595 486.157H56.4215Z" fill="white"/>
<path d="M70.2192 486.25L63.4659 486.042C63.3696 486.039 63.2748 486.016 63.187 485.975C63.0991 485.934 63.02 485.874 62.9541 485.801C62.8882 485.727 62.8368 485.641 62.8029 485.547C62.7691 485.452 62.7534 485.352 62.7567 485.251C62.7665 485.049 62.8506 484.858 62.9913 484.719C63.1321 484.58 63.3187 484.503 63.5123 484.504L70.2656 484.712C70.4604 484.712 70.6472 484.793 70.7849 484.937C70.9226 485.081 71 485.277 71 485.481C71 485.685 70.9226 485.88 70.7849 486.024C70.6472 486.169 70.4604 486.25 70.2656 486.25H70.2192Z" fill="white"/>
<path d="M60.0217 481.703C59.8279 481.701 59.6424 481.621 59.505 481.478C59.3677 481.335 59.2894 481.141 59.2872 480.938L59.2197 471.773C59.2197 471.57 59.2963 471.374 59.433 471.23C59.5697 471.085 59.7555 471.002 59.9499 471C60.0462 470.999 60.1416 471.019 60.2306 471.057C60.3197 471.095 60.4007 471.151 60.469 471.222C60.5372 471.293 60.5914 471.378 60.6283 471.471C60.6653 471.564 60.6843 471.664 60.6843 471.764L60.7518 480.947C60.753 481.048 60.7351 481.148 60.6992 481.242C60.6633 481.336 60.6102 481.421 60.5427 481.493C60.4753 481.566 60.395 481.623 60.3063 481.663C60.2176 481.703 60.1223 481.724 60.0259 481.725L60.0217 481.703Z" fill="white"/>
<path d="M60.0767 501C59.8841 501 59.6992 500.921 59.5618 500.779C59.4245 500.638 59.3456 500.446 59.3423 500.244L59.1988 489.639C59.196 489.435 59.2707 489.238 59.4064 489.092C59.5422 488.946 59.7279 488.862 59.9226 488.859C60.1174 488.856 60.3053 488.934 60.445 489.076C60.5848 489.219 60.6648 489.413 60.6676 489.617L60.8111 500.222C60.8122 500.323 60.7943 500.423 60.7585 500.517C60.7226 500.611 60.6694 500.696 60.602 500.769C60.5346 500.841 60.4543 500.898 60.3656 500.938C60.2769 500.978 60.1816 500.999 60.0852 501H60.0767Z" fill="white"/>
<path d="M6.92321 442C6.41667 442.002 5.9117 441.945 5.41906 441.831C1.92108 440.989 -0.575602 437.239 0.115249 433.781C0.806099 430.322 4.42651 427.735 8.04254 428.022L9.73906 428.152C9.90974 428.166 10.0708 428.234 10.1962 428.346C10.3215 428.459 10.4039 428.608 10.4299 428.772C11.1786 429.215 11.8282 429.798 12.3407 430.486C13.718 432.302 14.3214 434.88 13.8317 436.898C13.6102 437.739 13.219 438.529 12.6803 439.224C12.1416 439.918 11.4661 440.504 10.6923 440.947C9.56069 441.626 8.25631 441.99 6.92321 442ZM7.50473 429.471C4.76757 429.471 2.1266 431.489 1.61065 434.059C1.06409 436.789 3.01423 439.755 5.77763 440.403C6.47918 440.553 7.2044 440.567 7.91188 440.447C8.61935 440.326 9.29519 440.072 9.90084 439.7C11.117 439.009 11.9992 437.882 12.3538 436.565C12.5245 435.661 12.5029 434.732 12.2902 433.835C12.0775 432.939 11.6782 432.093 11.1164 431.35C10.7563 430.835 10.2844 430.402 9.73319 430.08C9.18202 429.759 8.56483 429.557 7.92447 429.488C7.78455 429.475 7.66651 429.471 7.50473 429.471Z" fill="white"/>
<path d="M27.9561 426C27.6667 426.001 27.3781 425.961 27.0966 425.88C25.0978 425.278 23.6711 422.6 24.0659 420.129C24.4606 417.659 26.5294 415.811 28.5957 416.015L29.5652 416.109C29.6627 416.118 29.7547 416.167 29.8264 416.247C29.898 416.328 29.9451 416.435 29.9599 416.551C30.3878 416.868 30.759 417.284 31.0518 417.776C31.8388 419.073 32.1837 420.914 31.9038 422.356C31.7773 422.956 31.5537 423.521 31.2459 424.017C30.938 424.513 30.552 424.931 30.1099 425.248C29.4632 425.733 28.7179 425.993 27.9561 426ZM28.2884 417.051C26.7243 417.051 25.2152 418.492 24.9204 420.328C24.6081 422.278 25.7224 424.396 27.3015 424.859C27.7024 424.966 28.1168 424.977 28.5211 424.891C28.9253 424.804 29.3115 424.623 29.6576 424.357C30.3526 423.864 30.8567 423.059 31.0593 422.118C31.1569 421.472 31.1445 420.808 31.023 420.168C30.9014 419.528 30.6733 418.924 30.3522 418.393C30.1465 418.025 29.8768 417.716 29.5618 417.486C29.2469 417.256 28.8942 417.112 28.5283 417.063C28.4483 417.054 28.3809 417.051 28.2884 417.051Z" fill="white"/>
</svg>
