<svg width="160" height="32" viewBox="0 0 160 32" fill="none" xmlns="http://www.w3.org/2000/svg">
    <path d="M147.272 21.9603C147.272 25.2766 144.928 27.2548 140.679 27.2548C137.778 27.2548 135.609 25.7711 135.609 24.1712V22.3966H135.756C136.606 23.1821 138.628 23.8803 140.503 23.8803C142.437 23.8803 143.375 23.3275 143.375 22.1639C143.375 21.2621 142.818 20.8257 140.093 20.4476C136.752 19.9821 135.141 18.673 135.141 16.2876C135.141 13.3495 137.807 10.8477 141.851 10.8477C145.426 10.8477 146.892 12.6804 146.892 14.1931V15.6767H146.745C145.925 14.8622 144.108 14.2222 142.232 14.2222C139.829 14.2222 139.067 14.9494 139.067 15.9676C139.067 16.7531 139.536 17.0731 142.232 17.5094C145.514 18.033 147.272 19.4585 147.272 21.9603Z"
          fill="white"/>
    <path d="M134.141 24.6953C134.141 26.3826 133.232 27.0516 131.503 27.0516C128.25 27.0516 126.492 25.3353 126.492 22.1644V5.96094H127.606C129.569 5.96094 130.419 7.09547 130.419 8.57909V21.7862C130.419 23.3571 131.239 23.8517 133.086 23.8517H134.141V24.6953Z"
          fill="white"/>
    <path d="M121.335 7.79251C121.335 9.0434 120.28 10.0907 119.02 10.0907C117.76 10.0907 116.734 9.0434 116.734 7.79251C116.734 6.54161 117.76 5.52344 119.02 5.52344C120.28 5.52344 121.335 6.54161 121.335 7.79251ZM124.148 24.6942C124.148 26.3814 123.474 27.0505 121.804 27.0505C118.756 27.0505 117.086 25.3342 117.086 22.1633V11.5452H118.2C119.958 11.5452 121.013 12.4761 121.013 14.4543V21.7851C121.013 23.356 121.687 23.8505 123.416 23.8505H124.148V24.6942Z"
          fill="white"/>
    <path d="M113.47 21.5534C113.47 24.8698 111.008 27.1679 107.492 27.1679H106.701C102.95 27.1679 100.371 25.0734 100.371 22.1934C100.371 19.4007 102.422 17.2771 108.225 17.2771H109.602V17.0735C109.602 14.8626 108.547 14.1935 106.203 14.1935C103.36 14.1935 101.778 15.2698 101.192 15.9971H101.045V14.7462C101.045 13.0008 102.627 10.9062 106.789 10.9062C110.305 10.9062 113.47 12.5353 113.47 17.9462V21.5534ZM109.631 21.5825V20.0698H108.225C105.236 20.0698 104.386 20.768 104.386 22.048C104.386 23.2698 105.382 23.997 107.111 23.997C108.811 23.997 109.631 23.1825 109.631 21.5825Z"
          fill="white"/>
    <path d="M100.721 8.22746C100.721 9.18745 99.6364 10.4674 98.3178 10.4674H94.6255V26.9036H93.0137C91.6071 26.9036 90.5815 26.0018 90.5815 24.2273V10.4674H84.8086V9.15836C84.8086 8.19837 85.5998 6.97656 87.2408 6.97656H100.721V8.22746Z"
          fill="white"/>
    <path d="M80.7409 23.5297C77.8105 30.3951 76.2574 31.9951 73.4149 31.9951C71.9497 31.9951 70.6603 31.0351 70.6603 29.5806V28.8242L72.8874 28.6788C74.3233 28.5915 74.8215 28.0097 75.6713 25.7988C73.5907 22.6861 70.6017 14.8898 70.0742 11.1953H72.1548C73.2391 11.1953 74.2354 11.9226 74.4405 13.028C74.9973 16.0534 76.1695 19.3116 77.6054 22.0752C78.8947 19.1371 80.3306 14.3953 80.6823 11.1953H82.3819C83.642 11.1953 84.2281 11.748 84.2281 13.028C84.2281 14.6862 81.4735 21.8425 80.7409 23.5297Z"
          fill="#FFDC26"/>
    <path d="M68.6072 18.5858C68.6072 23.6184 66.0871 27.2548 61.4863 27.2548C59.7281 27.2548 58.2922 26.2657 57.501 24.9275V31.8511H56.2702C54.8636 31.8511 53.5156 30.8329 53.5156 29.1457V19.6621C53.5156 14.4549 55.8599 10.8477 61.4277 10.8477C65.6182 10.8477 68.6072 14.6294 68.6072 18.5858ZM64.5632 19.6039C64.5632 15.9094 63.3325 14.3094 60.8123 14.3094C58.6438 14.3094 57.4424 16.1712 57.4424 18.8767C57.4424 22.0185 58.9955 23.793 61.3398 23.793C63.2446 23.793 64.5632 22.1057 64.5632 19.6039Z"
          fill="#FFDC26"/>
    <path d="M50.4353 18.5858C50.4353 23.6184 47.9152 27.2548 43.3144 27.2548C41.5562 27.2548 40.1203 26.2657 39.3291 24.9275V31.8511H38.0983C36.6917 31.8511 35.3438 30.8329 35.3438 29.1457V19.6621C35.3438 14.4549 37.6881 10.8477 43.2558 10.8477C47.4463 10.8477 50.4353 14.6294 50.4353 18.5858ZM46.3914 19.6039C46.3914 15.9094 45.1606 14.3094 42.6405 14.3094C40.472 14.3094 39.2705 16.1712 39.2705 18.8767C39.2705 22.0185 40.8236 23.793 43.1679 23.793C45.0727 23.793 46.3914 22.1057 46.3914 19.6039Z"
          fill="#FFDC26"/>
    <path d="M32.2278 21.5534C32.2278 24.8698 29.7663 27.1679 26.2498 27.1679H25.4586C21.7077 27.1679 19.1289 25.0734 19.1289 22.1934C19.1289 19.4007 21.1802 17.2771 26.9824 17.2771H28.3597V17.0735C28.3597 14.8626 27.3047 14.1935 24.9604 14.1935C22.1179 14.1935 20.5355 15.2698 19.9494 15.9971H19.8029V14.7462C19.8029 13.0008 21.3853 10.9062 25.5465 10.9062C29.063 10.9062 32.2278 12.5353 32.2278 17.9462V21.5534ZM28.389 21.5825V20.0698H26.9824C23.9934 20.0698 23.1436 20.768 23.1436 22.048C23.1436 23.2698 24.1399 23.997 25.8688 23.997C27.5685 23.997 28.389 23.1825 28.389 21.5825Z"
          fill="#FFDC26"/>
    <path d="M16.0293 26.9036H14.4176C13.2454 26.9036 12.0733 25.9727 12.0733 24.2273V18.351H3.98535V26.9036H2.43223C1.08425 26.9036 0 25.9727 0 24.2273V6.97656H1.96337C3.10623 6.97656 3.95604 7.93656 3.95604 9.07109V15.0056H12.0733V6.97656H13.8901C14.9157 6.97656 16.0293 7.7911 16.0293 9.07109V26.9036Z"
          fill="#FFDC26"/>
    <path fill-rule="evenodd" clip-rule="evenodd"
          d="M156.955 0.448939C156.842 0.935202 156.4 1.75704 156.038 2.15369C155.687 2.53911 155.102 2.92576 154.57 3.12448L154.085 3.3057L154.53 3.46196C155.591 3.8339 156.526 4.82531 156.877 5.94905L157.068 6.56138L157.176 6.12593C157.335 5.48532 157.59 5.02168 158.076 4.49209C158.551 3.97346 158.995 3.67338 159.601 3.46014L159.999 3.32023L159.541 3.12796C158.876 2.84928 158.55 2.62038 158.07 2.09679C157.586 1.56963 157.335 1.10825 157.172 0.452506L157.06 0L156.955 0.448939ZM150.766 2.67997C150.684 2.94812 150.443 3.52687 150.23 3.96615C149.554 5.36003 148.294 6.46428 147.204 6.61837L146.812 6.67379L147.457 6.86563C148.9 7.29508 149.979 8.50991 150.657 10.4689L150.932 11.2619L151.083 10.76C151.331 9.93686 151.866 8.88786 152.341 8.29284C152.926 7.56114 153.579 7.1055 154.386 6.86537L155.032 6.67318L154.671 6.62324C154.036 6.53537 153.144 6.01082 152.597 5.40258C151.874 4.60075 151.552 3.99573 150.972 2.35362C150.93 2.23304 150.878 2.31534 150.766 2.67997ZM155.811 9.04003C155.693 9.53447 155.233 10.3147 154.86 10.6532C154.655 10.8397 154.294 11.0665 154.059 11.1571L153.631 11.3218L154.156 11.5647C154.815 11.8699 155.434 12.542 155.679 13.2198C155.776 13.4846 155.856 13.7488 155.859 13.8068C155.861 13.8647 155.931 13.6933 156.014 13.4258C156.294 12.5233 156.975 11.7504 157.702 11.5111C158.061 11.393 158.229 11.2586 158.018 11.2586C157.768 11.2586 157.092 10.8565 156.752 10.506C156.402 10.1443 156.14 9.67855 155.976 9.12703L155.873 8.77902L155.811 9.04003Z"
          fill="#FFDC26"/>
</svg>
