<svg width="54" height="54" viewBox="0 0 54 54" fill="none" xmlns="http://www.w3.org/2000/svg">
    <circle cx="27" cy="27" r="26.5" fill="white" stroke="white"/>
    <path fill-rule="evenodd" clip-rule="evenodd"
          d="M25.3688 36.0338L27 37.5188L28.6312 36.0338C34.425 30.78 38.25 27.3038 38.25 23.0625C38.25 19.5863 35.5275 16.875 32.0625 16.875C30.105 16.875 28.2262 17.7862 27 19.215C25.7738 17.7862 23.895 16.875 21.9375 16.875C18.4725 16.875 15.75 19.5863 15.75 23.0625C15.75 27.3038 19.575 30.78 25.3688 36.0338ZM28.125 22.5C28.125 23.1213 27.6213 23.625 27 23.625C26.3787 23.625 25.875 23.1213 25.875 22.5C25.875 21.8787 26.3787 21.375 27 21.375C27.6213 21.375 28.125 21.8787 28.125 22.5ZM23.625 29.0674C23.625 28.5046 23.9851 28.005 24.5191 27.827L24.7683 27.7439C25.121 27.6263 25.4245 27.3945 25.6307 27.0852L26.3977 25.9346C26.4242 25.895 26.4545 25.858 26.4882 25.8243C26.7709 25.5416 27.2291 25.5416 27.5118 25.8243C27.5455 25.858 27.5758 25.895 27.6023 25.9346L28.3693 27.0852C28.5755 27.3945 28.879 27.6263 29.2317 27.7439L29.4809 27.827C30.0149 28.005 30.375 28.5046 30.375 29.0674C30.375 29.7896 29.7896 30.375 29.0674 30.375H24.9326C24.2104 30.375 23.625 29.7896 23.625 29.0674ZM23.625 25.875C24.2463 25.875 24.75 25.3713 24.75 24.75C24.75 24.1287 24.2463 23.625 23.625 23.625C23.0037 23.625 22.5 24.1287 22.5 24.75C22.5 25.3713 23.0037 25.875 23.625 25.875ZM31.5 24.75C31.5 25.3713 30.9963 25.875 30.375 25.875C29.7537 25.875 29.25 25.3713 29.25 24.75C29.25 24.1287 29.7537 23.625 30.375 23.625C30.9963 23.625 31.5 24.1287 31.5 24.75Z"
          fill="#5B85F6"/>
</svg>
