<svg width="42" height="42" viewBox="0 0 42 42" fill="none" xmlns="http://www.w3.org/2000/svg">
    <path opacity="0.25" fill-rule="evenodd" clip-rule="evenodd"
          d="M21 41C32.0457 41 41 32.0457 41 21C41 9.95431 32.0457 1 21 1C9.95431 1 1 9.95431 1 21C1 32.0457 9.95431 41 21 41Z"
          fill="white" stroke="white" stroke-width="1.5"/>
    <path d="M16.5 17C17.3284 17 18 16.3284 18 15.5C18 14.6716 17.3284 14 16.5 14C15.6716 14 15 14.6716 15 15.5C15 16.3284 15.6716 17 16.5 17Z"
          fill="white"/>
    <path d="M17.75 19H15.25C15.112 19 15 19.126 15 19.2812V27.7188C15 27.874 15.112 28 15.25 28H17.75C17.888 28 18 27.874 18 27.7188V19.2812C18 19.126 17.888 19 17.75 19Z"
          fill="white"/>
    <path d="M26.9733 18.183C25.7712 17.7524 24.2677 18.1306 23.366 18.8089C23.3351 18.6824 23.2248 18.5883 23.0938 18.5883H20.2812C20.126 18.5883 20 18.72 20 18.8824V27.7059C20 27.8682 20.126 28 20.2812 28H23.0938C23.249 28 23.375 27.8682 23.375 27.7059V21.3647C23.8295 20.9553 24.4151 20.8247 24.8943 21.0377C25.3589 21.243 25.625 21.7441 25.625 22.4118V27.7059C25.625 27.8682 25.751 28 25.9062 28H28.7188C28.874 28 29 27.8682 29 27.7059V21.8194C28.9679 19.4024 27.8806 18.5077 26.9733 18.183Z"
          fill="white"/>
</svg>
