<svg width="200" height="54" viewBox="0 0 200 54" fill="none" xmlns="http://www.w3.org/2000/svg">
    <path d="M53.3324 35.0004L49.2824 30.9504M49.2824 30.9504C49.9324 30.3003 50.4481 29.5286 50.7999 28.6793C51.1517 27.83 51.3327 26.9197 51.3327 26.0004C51.3327 25.0811 51.1517 24.1708 50.7999 23.3214C50.4481 22.4721 49.9324 21.7004 49.2824 21.0504C48.6323 20.4003 47.8606 19.8847 47.0113 19.5329C46.162 19.1811 45.2517 19 44.3324 19C43.4131 19 42.5028 19.1811 41.6535 19.5329C40.8041 19.8847 40.0324 20.4003 39.3824 21.0504C38.0696 22.3632 37.332 24.1437 37.332 26.0004C37.332 27.857 38.0696 29.6375 39.3824 30.9504C40.6952 32.2632 42.4758 33.0007 44.3324 33.0007C46.189 33.0007 47.9696 32.2632 49.2824 30.9504Z"
          stroke="#262626" stroke-width="2" stroke-linecap="round" stroke-linejoin="round"/>
</svg>
