<svg width="42" height="42" viewBox="0 0 42 42" fill="none" xmlns="http://www.w3.org/2000/svg">
    <path opacity="0.25" fill-rule="evenodd" clip-rule="evenodd"
          d="M21 41C32.0457 41 41 32.0457 41 21C41 9.95431 32.0457 1 21 1C9.95431 1 1 9.95431 1 21C1 32.0457 9.95431 41 21 41Z"
          stroke="white" stroke-width="1.5"/>
    <path d="M27.9205 17.4617C27.828 17.3556 27.6788 17.3289 27.5565 17.3943C27.4804 17.435 27.3374 17.4884 27.1675 17.5411C27.3818 17.2438 27.5541 16.9109 27.6301 16.6118C27.663 16.4828 27.6149 16.3469 27.5102 16.27C27.4055 16.1938 27.2662 16.1938 27.1615 16.27C26.9965 16.3901 26.2003 16.7509 25.697 16.8677C24.5593 15.8279 23.2354 15.7199 21.8592 16.5584C20.7404 17.24 20.4969 18.626 20.5444 19.4709C17.9837 19.2136 16.3919 17.8022 15.496 16.634C15.4333 16.552 15.3322 16.5088 15.2373 16.5152C15.1374 16.5228 15.0474 16.5806 14.9962 16.6702C14.5726 17.4166 14.4551 18.2417 14.6578 19.0567C14.7686 19.5014 14.9621 19.8933 15.1867 20.2109C15.079 20.1557 14.9749 20.0864 14.8769 20.0038C14.7868 19.9263 14.6608 19.9117 14.5543 19.9632C14.4484 20.0159 14.3808 20.1277 14.3808 20.2503C14.3808 21.6497 15.2196 22.5835 16.003 23.0713C15.8764 23.0554 15.7443 23.0262 15.611 22.9837C15.4966 22.9475 15.3724 22.9837 15.2933 23.0777C15.2141 23.171 15.1953 23.3044 15.2446 23.4181C15.6846 24.4339 16.5186 25.1326 17.5503 25.3861C16.6494 25.9381 15.4436 26.2087 14.3394 26.0759C14.1964 26.055 14.0601 26.1496 14.015 26.2932C13.97 26.4367 14.029 26.5943 14.155 26.6679C15.8301 27.6494 17.3445 28 18.6532 28C20.5578 28 22.0278 27.2581 22.9226 26.6375C25.3348 24.9668 26.8382 21.9673 26.6289 19.2835C27.0154 18.9856 27.5936 18.4355 27.9521 17.8441C28.0264 17.7247 28.013 17.5671 27.9205 17.4617Z"
          fill="white"/>
</svg>
